<svg width="31" height="56" viewBox="0 0 31 56" fill="none" xmlns="http://www.w3.org/2000/svg">
<path d="M2.64633 19.7959C2.64633 19.7959 25.6284 30.4437 25.6255 30.4494L0.0052093 27.3617C-0.071883 24.3719 0.701895 21.4019 2.64633 19.7959Z" fill="#FAFAFA"/>
<path d="M28.234 27.5425L3.25732 13.6399C4.14817 11.9456 5.68145 9.32874 10.2356 7.15039L28.234 27.5425Z" fill="#FAFAFA"/>
<path d="M30.996 25.7057L13.4448 2.69694C16.6427 0.860292 20.0462 -0.327121 26.2878 0.0800737L30.996 25.7057Z" fill="#FAFAFA"/>
<path d="M24.2445 33.9695L3.26022 39.8316C2.41506 38.3851 1.5699 35.7454 2.49501 32.71L24.2445 33.9695Z" fill="#FAFAFA"/>
<path d="M11.3205 49.49C9.69587 48.2115 8.01983 46.372 7.56299 43.8747L24.8582 37.9482C24.8582 37.9482 11.3234 49.4928 11.3205 49.49Z" fill="#FAFAFA"/>
<path d="M20.155 54.0083C18.5846 53.6239 16.9143 53.0117 16.1348 51.4797L27.1601 41.1611L20.155 54.0083Z" fill="#FAFAFA"/>
<path d="M27.981 55.2391C26.7332 55.2562 25.4969 55.128 24.4775 54.0574L30.0753 43.457L27.981 55.2362V55.2391Z" fill="#FAFAFA"/>
</svg>
