<svg width="173" height="56" viewBox="0 0 173 56" fill="none" xmlns="http://www.w3.org/2000/svg">
<path d="M2.64633 19.7959C2.64633 19.7959 25.6284 30.4437 25.6255 30.4494L0.0052093 27.3617C-0.071883 24.3719 0.701895 21.4019 2.64633 19.7959Z" fill="#FAFAFA"/>
<path d="M28.234 27.5425L3.25732 13.6399C4.14817 11.9456 5.68145 9.32874 10.2356 7.15039L28.234 27.5425Z" fill="#FAFAFA"/>
<path d="M30.996 25.7057L13.4448 2.69694C16.6427 0.860292 20.0462 -0.327121 26.2878 0.0800737L30.996 25.7057Z" fill="#FAFAFA"/>
<path d="M24.2445 33.9695L3.26022 39.8316C2.41506 38.3851 1.5699 35.7454 2.49501 32.71L24.2445 33.9695Z" fill="#FAFAFA"/>
<path d="M11.3205 49.49C9.69587 48.2115 8.01983 46.372 7.56299 43.8747L24.8582 37.9482C24.8582 37.9482 11.3234 49.4928 11.3205 49.49Z" fill="#FAFAFA"/>
<path d="M20.155 54.0083C18.5846 53.6239 16.9143 53.0117 16.1348 51.4797L27.1601 41.1611L20.155 54.0083Z" fill="#FAFAFA"/>
<path d="M27.981 55.2391C26.7332 55.2562 25.4969 55.128 24.4775 54.0574L30.0753 43.457L27.981 55.2362V55.2391Z" fill="#FAFAFA"/>
<path d="M41.5468 55.109C40.0145 55.0851 38.6738 54.834 37.5605 54.3439C35.3099 53.3396 34.0649 51.4387 34.0649 48.8803C34.0649 47.5891 34.3522 46.4414 34.9867 45.5328C36.1718 43.6916 38.4703 42.6515 41.5468 42.6515C44.0128 42.6635 45.8444 43.2613 47.0056 44.4687C47.8196 45.2817 48.3224 46.3816 48.454 47.6847H45.4374C45.3057 47.1467 45.0902 46.7163 44.7311 46.3577C44.0727 45.6643 43.0551 45.3415 41.5468 45.3415C38.7216 45.3415 37.1175 46.5609 37.1175 48.8803C37.1175 51.2116 38.7336 52.4071 41.5468 52.4071C43.0551 52.419 44.0727 52.0963 44.7311 51.4028C45.0902 51.0442 45.3057 50.6138 45.4374 50.0758H48.454C48.3224 51.3789 47.8196 52.4669 47.0056 53.2918C45.8444 54.4873 44.0128 55.097 41.5468 55.109Z" fill="#FAFAFA"/>
<path d="M56.5416 55.1568C55.0452 55.1568 53.7165 54.9177 52.5792 54.4395C50.2449 53.4711 48.952 51.5941 48.952 48.964C48.952 45.1024 51.7891 42.7233 56.5416 42.7233C61.2462 42.7233 64.0833 45.1143 64.0833 48.964C64.0833 50.291 63.7601 51.4268 63.1256 52.3473C61.8448 54.1765 59.5463 55.1568 56.5416 55.1568ZM52.1124 48.964C52.1124 49.7411 52.2919 50.4225 52.663 50.9844C53.3933 52.1321 54.7699 52.7658 56.5416 52.7658C57.4155 52.7658 58.1816 52.6103 58.84 52.2995C60.1688 51.6898 60.923 50.5301 60.923 48.964C60.923 48.1749 60.7434 47.4934 60.3843 46.9076C59.6541 45.748 58.2774 45.0904 56.5416 45.0904C55.7156 45.0904 54.9734 45.2458 54.2911 45.5447C52.9144 46.1664 52.1124 47.338 52.1124 48.964Z" fill="#FAFAFA"/>
<path d="M78.9225 47.601V55.2405H75.8101V48.1271C75.8101 47.3619 75.6904 46.7642 75.439 46.3218C74.9601 45.473 74.0264 45.1382 72.6497 45.1382C71.7998 45.1382 71.0576 45.3295 70.4231 45.7001C69.4176 46.3099 68.6634 47.2185 68.2684 48.1629V55.2405H65.1559V42.9145H68.2684V44.66C69.4296 43.4764 71.1773 42.6276 73.6074 42.6276C76.684 42.6276 78.9225 44.0742 78.9225 47.601Z" fill="#FAFAFA"/>
<path d="M86.1961 47.7923C88.3509 48.2705 91.1521 48.9281 91.1521 51.5344C91.1521 53.782 89.4641 55.2405 86.1721 55.2405H85.3581C81.4077 55.2405 79.8754 53.0527 80.1148 50.7573H82.7724C82.7724 52.0723 83.1076 52.7179 85.3581 52.7179H86.1721C88.3389 52.7179 88.5184 52.2039 88.5184 51.5344C88.5184 50.9366 87.2854 50.566 85.3222 50.1356L84.999 50.0638C82.8442 49.5856 80.031 48.9281 80.031 46.3218C80.031 44.0742 81.7309 42.6157 85.0229 42.6157H85.837C89.7874 42.6157 91.3197 44.8035 91.0683 47.0989H88.4107C88.4107 45.7838 88.0755 45.1382 85.837 45.1382H85.0229C82.8562 45.1382 82.6766 45.6523 82.6766 46.3218C82.6766 46.9196 83.9096 47.2902 85.8729 47.7206L86.1961 47.7923Z" fill="#FAFAFA"/>
<path d="M92.2965 50.1834V42.9863H95.4089V49.6574C95.4089 50.4225 95.5286 51.0203 95.78 51.4626C96.2589 52.3115 97.1926 52.6462 98.5693 52.6462C99.4192 52.6462 100.161 52.4549 100.796 52.0843C101.801 51.4746 102.556 50.566 102.951 49.6215V42.9863H106.063V55.2405H102.951V53.1244C101.789 54.308 100.042 55.1568 97.6116 55.1568C94.5351 55.1568 92.2965 53.7102 92.2965 50.1834Z" fill="#FAFAFA"/>
<path d="M107.902 39.7344H111.014V55.2405H107.902V39.7344Z" fill="#FAFAFA"/>
<path d="M119.545 55.2404C117.51 55.2404 116.157 54.5709 115.475 53.2319C115.127 52.6222 114.912 51.4626 114.912 50.5062V45.4013H111.847V42.9863H114.912V39.7344H118.024V42.9863H121.089V45.4013H118.024V50.1236C118.024 51.1876 118.408 52.1201 119.09 52.3592C119.425 52.4668 119.82 52.5026 120.287 52.5026H121.089V55.2404H119.545Z" fill="#FAFAFA"/>
<path d="M127.716 55.1449C125.238 55.1449 123.191 54.0689 122.042 52.2039C120.893 50.3747 120.881 47.5293 122.042 45.6643C123.191 43.7992 125.238 42.7233 127.716 42.7233H128.351C129.979 42.7233 131.774 43.1895 133.127 43.9905V42.9863H136.239V55.2404H133.127V53.8776C131.774 54.6786 129.979 55.1449 128.351 55.1449H127.716ZM124.364 48.9281C124.364 51.2833 125.921 52.7299 128.554 52.7299C131.487 52.7299 133.127 51.2355 133.127 48.9281C133.127 46.6327 131.487 45.1382 128.554 45.1382C125.921 45.1382 124.364 46.5848 124.364 48.9281Z" fill="#FAFAFA"/>
<path d="M151.605 47.601V55.2404H148.493V48.1271C148.493 47.3619 148.373 46.7642 148.122 46.3218C147.643 45.473 146.709 45.1382 145.333 45.1382C144.483 45.1382 143.74 45.3295 143.106 45.7001C142.1 46.3099 141.346 47.2185 140.951 48.1629V55.2404H137.839V42.9145H140.951V44.66C142.112 43.4764 143.86 42.6276 146.29 42.6276C149.367 42.6276 151.605 44.0742 151.605 47.601Z" fill="#FAFAFA"/>
<path d="M160.064 55.2404C158.029 55.2404 156.676 54.5709 155.994 53.2319C155.647 52.6222 155.431 51.4626 155.431 50.5062V45.4013H152.367V42.9863H155.431V39.7344H158.544V42.9863H161.608V45.4013H158.544V50.1236C158.544 51.1876 158.927 52.1201 159.609 52.3592C159.944 52.4668 160.339 52.5026 160.806 52.5026H161.608V55.2404H160.064Z" fill="#FAFAFA"/>
<path d="M168.044 47.7923C170.199 48.2705 173 48.9281 173 51.5344C173 53.782 171.312 55.2405 168.02 55.2405H167.206C163.256 55.2405 161.723 53.0527 161.963 50.7573H164.62C164.62 52.0723 164.955 52.7179 167.206 52.7179H168.02C170.187 52.7179 170.366 52.2039 170.366 51.5344C170.366 50.9366 169.133 50.566 167.17 50.1356L166.847 50.0638C164.692 49.5856 161.879 48.9281 161.879 46.3218C161.879 44.0742 163.579 42.6157 166.871 42.6157H167.685C171.635 42.6157 173.167 44.8035 172.916 47.0989H170.259C170.259 45.7838 169.923 45.1382 167.685 45.1382H166.871C164.704 45.1382 164.524 45.6523 164.524 46.3218C164.524 46.9196 165.757 47.2902 167.721 47.7206L168.044 47.7923Z" fill="#FAFAFA"/>
<path d="M39.9622 30.8658C42.0233 31.3357 44.7028 31.9818 44.7028 34.5426C44.7028 36.7511 43.0882 38.1842 39.9393 38.1842H39.1606C35.3818 38.1842 33.9161 36.0345 34.1451 33.7791H36.6872C36.6872 35.0712 37.0078 35.7056 39.1606 35.7056H39.9393C42.0119 35.7056 42.1836 35.2004 42.1836 34.5426C42.1836 33.9553 41.0042 33.5911 39.1262 33.1682L38.8171 33.0977C36.7559 32.6278 34.0649 31.9818 34.0649 29.4209C34.0649 27.2124 35.691 25.7793 38.84 25.7793H39.6186C43.3974 25.7793 44.8631 27.929 44.6227 30.1844H42.0806C42.0806 28.8923 41.7599 28.2579 39.6186 28.2579H38.84C36.7674 28.2579 36.5956 28.7631 36.5956 29.4209C36.5956 30.0082 37.775 30.3724 39.653 30.7953L39.9622 30.8658Z" fill="#FAFAFA"/>
<path d="M51.7346 38.0902C49.3643 38.0902 47.4062 37.033 46.3069 35.2004C45.2076 33.4031 45.1961 30.6073 46.3069 28.7748C47.4062 26.9423 49.3643 25.885 51.7346 25.885H52.3415C53.8988 25.885 55.6164 26.3432 56.9104 27.1302V26.1435H59.8876V38.1656H56.9104V36.845C55.6164 37.6321 53.8988 38.0902 52.3415 38.0902H51.7346ZM48.5283 31.9818C48.5283 34.2959 50.017 35.7173 52.5362 35.7173C55.3416 35.7173 56.9104 34.2489 56.9104 31.9818C56.9104 29.7263 55.3416 28.2579 52.5362 28.2579C50.017 28.2579 48.5283 29.6793 48.5283 31.9818Z" fill="#FAFAFA"/>
<path d="M67.3545 38.0902C64.9842 38.0902 63.0261 37.033 61.9268 35.2004C60.8275 33.4031 60.8161 30.6073 61.9268 28.7748C63.0261 26.9423 64.9842 25.885 67.3545 25.885H67.9614C69.5188 25.885 71.2364 26.3432 72.5303 27.1302V26.1435H75.5076V38.1656H72.5303V36.845C71.2364 37.6321 69.5188 38.0902 67.9614 38.0902H67.3545ZM64.1483 31.9818C64.1483 34.2959 65.6369 35.7173 68.1561 35.7173C70.9616 35.7173 72.5303 34.2489 72.5303 31.9818C72.5303 29.7263 70.9616 28.2579 68.1561 28.2579C65.6369 28.2579 64.1483 29.6793 64.1483 31.9818Z" fill="#FAFAFA"/>
<path d="M82.9745 38.0902C80.6041 38.0902 78.646 37.033 77.5467 35.2004C76.4475 33.4031 76.436 30.6073 77.5467 28.7748C78.646 26.9423 80.6041 25.885 82.9745 25.885H83.5814C85.1387 25.885 86.8563 26.3432 88.1503 27.1302V26.1435H91.1275V38.1656H88.1503V36.845C86.8563 37.6321 85.1387 38.0902 83.5814 38.0902H82.9745ZM79.7682 31.9818C79.7682 34.2959 81.2568 35.7173 83.776 35.7173C86.5815 35.7173 88.1503 34.2489 88.1503 31.9818C88.1503 29.7263 86.5815 28.2579 83.776 28.2579C81.2568 28.2579 79.7682 29.6793 79.7682 31.9818Z" fill="#FAFAFA"/>
</svg>
