<svg width="520" height="166" viewBox="0 0 520 166" fill="none" xmlns="http://www.w3.org/2000/svg">
<path d="M7.95229 59.4873C7.95229 59.4873 77.0137 91.4844 77.0052 91.5015L0.015654 82.2229C-0.21601 73.2382 2.10921 64.3134 7.95229 59.4873Z" fill="#844DE9"/>
<path d="M84.8441 82.7664L9.78857 40.9884C12.4656 35.8971 17.0731 28.0333 30.7585 21.4873L84.8441 82.7664Z" fill="#844DE9"/>
<path d="M93.1439 77.2466L40.4023 8.1044C50.0121 2.58521 60.2396 -0.983009 78.9958 0.240624L93.1439 77.2466Z" fill="#844DE9"/>
<path d="M72.8552 102.08L9.79702 119.696C7.2573 115.349 4.71758 107.417 7.49755 98.2949L72.8552 102.08Z" fill="#844DE9"/>
<path d="M34.0188 148.719C29.1367 144.877 24.1001 139.349 22.7273 131.844L74.6996 114.035C74.6996 114.035 34.0273 148.727 34.0188 148.719Z" fill="#844DE9"/>
<path d="M60.5657 162.298C55.8466 161.142 50.8272 159.303 48.4849 154.699L81.6162 123.691L60.5657 162.298Z" fill="#844DE9"/>
<path d="M84.084 165.995C80.3345 166.047 76.6193 165.662 73.5562 162.444L90.3774 130.59L84.084 165.987V165.995Z" fill="#844DE9"/>
<path d="M124.85 165.604C120.245 165.532 116.216 164.777 112.871 163.304C106.108 160.286 102.366 154.574 102.366 146.886C102.366 143.006 103.23 139.557 105.136 136.827C108.698 131.294 115.605 128.168 124.85 128.168C132.26 128.204 137.764 130.001 141.253 133.629C143.7 136.072 145.21 139.377 145.606 143.293H136.541C136.145 141.677 135.498 140.383 134.418 139.306C132.44 137.222 129.382 136.252 124.85 136.252C116.36 136.252 111.54 139.916 111.54 146.886C111.54 153.892 116.396 157.484 124.85 157.484C129.382 157.52 132.44 156.55 134.418 154.466C135.498 153.389 136.145 152.095 136.541 150.479H145.606C145.21 154.395 143.7 157.664 141.253 160.143C137.764 163.735 132.26 165.568 124.85 165.604Z" fill="#FAFAFA"/>
<path d="M169.91 165.747C165.413 165.747 161.42 165.029 158.002 163.592C150.988 160.682 147.103 155.041 147.103 147.137C147.103 135.533 155.628 128.384 169.91 128.384C184.047 128.384 192.573 135.569 192.573 147.137C192.573 151.125 191.601 154.538 189.695 157.305C185.846 162.801 178.939 165.747 169.91 165.747ZM156.599 147.137C156.599 149.473 157.139 151.52 158.254 153.209C160.449 156.658 164.585 158.562 169.91 158.562C172.536 158.562 174.838 158.095 176.816 157.161C180.809 155.329 183.076 151.844 183.076 147.137C183.076 144.766 182.536 142.719 181.457 140.958C179.263 137.473 175.126 135.497 169.91 135.497C167.427 135.497 165.197 135.964 163.147 136.863C159.01 138.731 156.599 142.252 156.599 147.137Z" fill="#FAFAFA"/>
<path d="M237.165 143.042V165.999H227.812V144.623C227.812 142.323 227.452 140.527 226.697 139.198C225.258 136.647 222.452 135.641 218.315 135.641C215.761 135.641 213.53 136.216 211.624 137.33C208.602 139.162 206.336 141.892 205.149 144.73V165.999H195.796V128.959H205.149V134.204C208.638 130.647 213.89 128.097 221.193 128.097C230.438 128.097 237.165 132.444 237.165 143.042Z" fill="#FAFAFA"/>
<path d="M259.022 143.617C265.497 145.054 273.915 147.03 273.915 154.862C273.915 161.616 268.843 165.999 258.95 165.999H256.504C244.633 165.999 240.028 159.424 240.748 152.526H248.734C248.734 156.478 249.741 158.418 256.504 158.418H258.95C265.461 158.418 266.001 156.873 266.001 154.862C266.001 153.065 262.296 151.952 256.396 150.658L255.425 150.443C248.95 149.006 240.496 147.03 240.496 139.198C240.496 132.444 245.604 128.061 255.497 128.061H257.943C269.814 128.061 274.419 134.635 273.663 141.533H265.677C265.677 137.581 264.67 135.641 257.943 135.641H255.497C248.986 135.641 248.446 137.186 248.446 139.198C248.446 140.994 252.151 142.108 258.051 143.401L259.022 143.617Z" fill="#FAFAFA"/>
<path d="M277.354 150.802V129.174H286.707V149.221C286.707 151.52 287.067 153.317 287.822 154.646C289.261 157.197 292.067 158.203 296.204 158.203C298.758 158.203 300.988 157.628 302.895 156.514C305.917 154.682 308.183 151.952 309.37 149.113V129.174H318.723V165.999H309.37V159.64C305.881 163.196 300.628 165.747 293.326 165.747C284.081 165.747 277.354 161.4 277.354 150.802Z" fill="#FAFAFA"/>
<path d="M324.248 119.402H333.601V165.999H324.248V119.402Z" fill="#FAFAFA"/>
<path d="M359.236 165.998C353.12 165.998 349.055 163.987 347.005 159.963C345.962 158.131 345.314 154.646 345.314 151.772V136.431H336.105V129.174H345.314V119.402H354.667V129.174H363.876V136.431H354.667V150.622C354.667 153.82 355.818 156.622 357.869 157.34C358.876 157.664 360.063 157.771 361.466 157.771H363.876V165.998H359.236Z" fill="#FAFAFA"/>
<path d="M383.791 165.711C376.345 165.711 370.193 162.478 366.74 156.873C363.286 151.377 363.25 142.826 366.74 137.222C370.193 131.617 376.345 128.384 383.791 128.384H385.698C390.59 128.384 395.986 129.785 400.051 132.192V129.174H409.404V165.998H400.051V161.903C395.986 164.31 390.59 165.711 385.698 165.711H383.791ZM373.719 147.03C373.719 154.107 378.395 158.454 386.309 158.454C395.123 158.454 400.051 153.963 400.051 147.03C400.051 140.132 395.123 135.641 386.309 135.641C378.395 135.641 373.719 139.988 373.719 147.03Z" fill="#FAFAFA"/>
<path d="M455.579 143.042V165.998H446.226V144.623C446.226 142.323 445.866 140.527 445.111 139.198C443.672 136.647 440.866 135.641 436.729 135.641C434.175 135.641 431.945 136.216 430.038 137.33C427.016 139.162 424.75 141.892 423.563 144.73V165.998H414.21V128.959H423.563V134.204C427.052 130.647 432.304 128.097 439.607 128.097C448.852 128.097 455.579 132.444 455.579 143.042Z" fill="#FAFAFA"/>
<path d="M480.998 165.998C474.882 165.998 470.817 163.987 468.767 159.963C467.723 158.131 467.076 154.646 467.076 151.772V136.431H457.867V129.174H467.076V119.402H476.429V129.174H485.638V136.431H476.429V150.622C476.429 153.82 477.58 156.622 479.631 157.34C480.638 157.664 481.825 157.771 483.228 157.771H485.638V165.998H480.998Z" fill="#FAFAFA"/>
<path d="M504.977 143.617C511.452 145.054 519.87 147.03 519.87 154.862C519.87 161.616 514.798 165.999 504.905 165.999H502.459C490.588 165.999 485.983 159.424 486.703 152.526H494.689C494.689 156.478 495.696 158.418 502.459 158.418H504.905C511.416 158.418 511.956 156.873 511.956 154.862C511.956 153.065 508.251 151.952 502.351 150.658L501.38 150.443C494.905 149.006 486.451 147.03 486.451 139.198C486.451 132.444 491.559 128.061 501.452 128.061H503.898C515.769 128.061 520.374 134.635 519.618 141.533H511.632C511.632 137.581 510.625 135.641 503.898 135.641H501.452C494.941 135.641 494.401 137.186 494.401 139.198C494.401 140.994 498.106 142.108 504.006 143.401L504.977 143.617Z" fill="#FAFAFA"/>
<path d="M120.088 92.7528C126.282 94.1648 134.334 96.1063 134.334 103.802C134.334 110.438 129.482 114.745 120.019 114.745H117.679C106.324 114.745 101.919 108.285 102.607 101.507H110.246C110.246 105.39 111.21 107.297 117.679 107.297H120.019C126.247 107.297 126.763 105.779 126.763 103.802C126.763 102.037 123.219 100.942 117.576 99.6717L116.647 99.4599C110.453 98.0478 102.366 96.1063 102.366 88.4109C102.366 81.7744 107.253 77.4678 116.716 77.4678H119.055C130.411 77.4678 134.815 83.9277 134.093 90.7054H126.454C126.454 86.8223 125.49 84.9161 119.055 84.9161H116.716C110.487 84.9161 109.971 86.434 109.971 88.4109C109.971 90.1759 113.515 91.2702 119.159 92.541L120.088 92.7528Z" fill="#FAFAFA"/>
<path d="M155.464 114.462C148.341 114.462 142.457 111.285 139.154 105.779C135.85 100.378 135.816 91.9762 139.154 86.4693C142.457 80.9625 148.341 77.7855 155.464 77.7855H157.288C161.968 77.7855 167.129 79.1622 171.018 81.5273V78.5621H179.964V114.689H171.018V110.721C167.129 113.086 161.968 114.462 157.288 114.462H155.464ZM145.829 96.1063C145.829 103.06 150.303 107.332 157.873 107.332C166.304 107.332 171.018 102.919 171.018 96.1063C171.018 89.3287 166.304 84.9161 157.873 84.9161C150.303 84.9161 145.829 89.1875 145.829 96.1063Z" fill="#FAFAFA"/>
<path d="M202.403 114.462C195.28 114.462 189.396 111.285 186.092 105.779C182.789 100.378 182.754 91.9762 186.092 86.4693C189.396 80.9625 195.28 77.7855 202.403 77.7855H204.226C208.906 77.7855 214.068 79.1622 217.956 81.5273V78.5621H226.903V114.689H217.956V110.721C214.068 113.086 208.906 114.462 204.226 114.462H202.403ZM192.768 96.1063C192.768 103.06 197.241 107.332 204.811 107.332C213.242 107.332 217.956 102.919 217.956 96.1063C217.956 89.3287 213.242 84.9161 204.811 84.9161C197.241 84.9161 192.768 89.1875 192.768 96.1063Z" fill="#FAFAFA"/>
<path d="M249.341 114.462C242.218 114.462 236.334 111.285 233.031 105.779C229.727 100.378 229.693 91.9762 233.031 86.4693C236.334 80.9625 242.218 77.7855 249.341 77.7855H251.165C255.845 77.7855 261.006 79.1622 264.894 81.5273V78.5621H273.841V114.689H264.894V110.721C261.006 113.086 255.845 114.462 251.165 114.462H249.341ZM239.706 96.1063C239.706 103.06 244.179 107.332 251.75 107.332C260.18 107.332 264.894 102.919 264.894 96.1063C264.894 89.3287 260.18 84.9161 251.75 84.9161C244.179 84.9161 239.706 89.1875 239.706 96.1063Z" fill="#FAFAFA"/>
</svg>
