<svg width="520" height="166" viewBox="0 0 520 166" fill="none" xmlns="http://www.w3.org/2000/svg">
<path d="M7.95229 59.4873C7.95229 59.4873 77.0137 91.4844 77.0052 91.5015L0.015654 82.2229C-0.21601 73.2382 2.10921 64.3134 7.95229 59.4873Z" fill="#844DE9"/>
<path d="M84.8441 82.7664L9.78851 40.9884C12.4655 35.8971 17.0731 28.0333 30.7584 21.4873L84.8441 82.7664Z" fill="#844DE9"/>
<path d="M93.1439 77.2466L40.4023 8.1044C50.0121 2.58521 60.2396 -0.983009 78.9958 0.240624L93.1439 77.2466Z" fill="#844DE9"/>
<path d="M72.8552 102.08L9.79702 119.696C7.2573 115.349 4.71758 107.417 7.49755 98.2949L72.8552 102.08Z" fill="#844DE9"/>
<path d="M34.0188 148.72C29.1367 144.878 24.1001 139.35 22.7273 131.845L74.6996 114.036C74.6996 114.036 34.0273 148.728 34.0188 148.72Z" fill="#844DE9"/>
<path d="M60.5658 162.297C55.8467 161.141 50.8273 159.302 48.4849 154.698L81.6163 123.69L60.5658 162.297Z" fill="#844DE9"/>
<path d="M84.0839 165.995C80.3344 166.047 76.6192 165.662 73.5561 162.444L90.3773 130.59L84.0839 165.987V165.995Z" fill="#844DE9"/>
<path d="M124.85 165.605C120.245 165.533 116.216 164.778 112.871 163.305C106.108 160.287 102.366 154.575 102.366 146.887C102.366 143.007 103.23 139.558 105.136 136.828C108.698 131.295 115.605 128.169 124.85 128.169C132.26 128.205 137.764 130.002 141.253 133.63C143.7 136.073 145.21 139.378 145.606 143.294H136.541C136.145 141.678 135.498 140.384 134.418 139.307C132.44 137.223 129.382 136.253 124.85 136.253C116.36 136.253 111.54 139.917 111.54 146.887C111.54 153.893 116.396 157.485 124.85 157.485C129.382 157.521 132.44 156.551 134.418 154.467C135.498 153.39 136.145 152.096 136.541 150.48H145.606C145.21 154.396 143.7 157.665 141.253 160.144C137.764 163.736 132.26 165.569 124.85 165.605Z" fill="#FAFAFA"/>
<path d="M169.91 165.748C165.413 165.748 161.42 165.03 158.002 163.593C150.988 160.683 147.103 155.042 147.103 147.138C147.103 135.534 155.628 128.385 169.91 128.385C184.047 128.385 192.573 135.57 192.573 147.138C192.573 151.126 191.601 154.539 189.695 157.306C185.846 162.802 178.939 165.748 169.91 165.748ZM156.599 147.138C156.599 149.474 157.139 151.521 158.254 153.21C160.449 156.659 164.585 158.563 169.91 158.563C172.536 158.563 174.838 158.096 176.816 157.162C180.809 155.33 183.076 151.845 183.076 147.138C183.076 144.767 182.536 142.72 181.457 140.959C179.263 137.474 175.126 135.498 169.91 135.498C167.427 135.498 165.197 135.965 163.147 136.864C159.01 138.732 156.599 142.253 156.599 147.138Z" fill="#FAFAFA"/>
<path d="M237.165 143.043V166H227.812V144.624C227.812 142.324 227.452 140.528 226.697 139.199C225.258 136.648 222.452 135.642 218.315 135.642C215.761 135.642 213.53 136.217 211.624 137.331C208.602 139.163 206.336 141.893 205.149 144.731V166H195.796V128.96H205.149V134.205C208.638 130.648 213.89 128.098 221.193 128.098C230.438 128.098 237.165 132.445 237.165 143.043Z" fill="#FAFAFA"/>
<path d="M259.022 143.618C265.497 145.055 273.915 147.031 273.915 154.863C273.915 161.617 268.843 166 258.95 166H256.504C244.633 166 240.028 159.425 240.748 152.527H248.734C248.734 156.479 249.741 158.419 256.504 158.419H258.95C265.461 158.419 266.001 156.874 266.001 154.863C266.001 153.066 262.296 151.953 256.396 150.659L255.425 150.444C248.95 149.007 240.496 147.031 240.496 139.199C240.496 132.445 245.604 128.062 255.497 128.062H257.943C269.814 128.062 274.419 134.636 273.663 141.534H265.677C265.677 137.582 264.67 135.642 257.943 135.642H255.497C248.986 135.642 248.446 137.187 248.446 139.199C248.446 140.995 252.151 142.109 258.051 143.402L259.022 143.618Z" fill="#FAFAFA"/>
<path d="M277.354 150.803V129.175H286.707V149.222C286.707 151.521 287.067 153.318 287.822 154.647C289.261 157.198 292.067 158.204 296.204 158.204C298.758 158.204 300.988 157.629 302.895 156.515C305.917 154.683 308.183 151.953 309.37 149.114V129.175H318.723V166H309.37V159.641C305.881 163.197 300.628 165.748 293.326 165.748C284.081 165.748 277.354 161.401 277.354 150.803Z" fill="#FAFAFA"/>
<path d="M324.248 119.403H333.601V166H324.248V119.403Z" fill="#FAFAFA"/>
<path d="M359.236 165.999C353.12 165.999 349.055 163.988 347.005 159.964C345.962 158.132 345.314 154.647 345.314 151.773V136.432H336.105V129.175H345.314V119.403H354.667V129.175H363.876V136.432H354.667V150.623C354.667 153.821 355.818 156.623 357.869 157.341C358.876 157.664 360.063 157.772 361.466 157.772H363.876V165.999H359.236Z" fill="#FAFAFA"/>
<path d="M383.791 165.712C376.345 165.712 370.193 162.479 366.74 156.874C363.286 151.378 363.25 142.827 366.74 137.223C370.193 131.618 376.345 128.385 383.791 128.385H385.698C390.59 128.385 395.986 129.786 400.051 132.193V129.175H409.404V165.999H400.051V161.904C395.986 164.311 390.59 165.712 385.698 165.712H383.791ZM373.719 147.031C373.719 154.108 378.395 158.455 386.309 158.455C395.123 158.455 400.051 153.964 400.051 147.031C400.051 140.133 395.123 135.642 386.309 135.642C378.395 135.642 373.719 139.989 373.719 147.031Z" fill="#FAFAFA"/>
<path d="M455.579 143.043V165.999H446.226V144.624C446.226 142.324 445.866 140.528 445.111 139.199C443.672 136.648 440.866 135.642 436.729 135.642C434.175 135.642 431.945 136.217 430.038 137.331C427.016 139.163 424.75 141.893 423.563 144.731V165.999H414.21V128.96H423.563V134.205C427.052 130.648 432.304 128.098 439.607 128.098C448.852 128.098 455.579 132.445 455.579 143.043Z" fill="#FAFAFA"/>
<path d="M480.998 165.999C474.882 165.999 470.817 163.988 468.767 159.964C467.723 158.132 467.076 154.647 467.076 151.773V136.432H457.867V129.175H467.076V119.403H476.429V129.175H485.638V136.432H476.429V150.623C476.429 153.821 477.58 156.623 479.631 157.341C480.638 157.664 481.825 157.772 483.228 157.772H485.638V165.999H480.998Z" fill="#FAFAFA"/>
<path d="M504.977 143.618C511.452 145.055 519.87 147.031 519.87 154.863C519.87 161.617 514.798 166 504.905 166H502.459C490.588 166 485.983 159.425 486.703 152.527H494.689C494.689 156.479 495.696 158.419 502.459 158.419H504.905C511.416 158.419 511.956 156.874 511.956 154.863C511.956 153.066 508.251 151.953 502.351 150.659L501.38 150.444C494.905 149.007 486.451 147.031 486.451 139.199C486.451 132.445 491.559 128.062 501.452 128.062H503.898C515.769 128.062 520.374 134.636 519.618 141.534H511.632C511.632 137.582 510.625 135.642 503.898 135.642H501.452C494.941 135.642 494.401 137.187 494.401 139.199C494.401 140.995 498.106 142.109 504.006 143.402L504.977 143.618Z" fill="#FAFAFA"/>
<path d="M120.088 92.7528C126.282 94.1648 134.334 96.1063 134.334 103.802C134.334 110.438 129.482 114.745 120.019 114.745H117.679C106.324 114.745 101.919 108.285 102.607 101.507H110.246C110.246 105.39 111.21 107.297 117.679 107.297H120.019C126.247 107.297 126.763 105.779 126.763 103.802C126.763 102.037 123.219 100.942 117.576 99.6717L116.647 99.4599C110.453 98.0478 102.366 96.1063 102.366 88.4109C102.366 81.7744 107.253 77.4678 116.716 77.4678H119.055C130.411 77.4678 134.815 83.9277 134.093 90.7054H126.454C126.454 86.8223 125.49 84.9161 119.055 84.9161H116.716C110.487 84.9161 109.971 86.434 109.971 88.4109C109.971 90.1759 113.515 91.2702 119.159 92.541L120.088 92.7528Z" fill="#FAFAFA"/>
<path d="M155.464 114.462C148.341 114.462 142.457 111.285 139.154 105.779C135.85 100.378 135.816 91.9762 139.154 86.4693C142.457 80.9625 148.341 77.7855 155.464 77.7855H157.288C161.968 77.7855 167.129 79.1622 171.018 81.5273V78.5621H179.964V114.689H171.018V110.721C167.129 113.086 161.968 114.462 157.288 114.462H155.464ZM145.829 96.1063C145.829 103.06 150.303 107.332 157.873 107.332C166.304 107.332 171.018 102.919 171.018 96.1063C171.018 89.3287 166.304 84.9161 157.873 84.9161C150.303 84.9161 145.829 89.1875 145.829 96.1063Z" fill="#FAFAFA"/>
<path d="M202.403 114.462C195.28 114.462 189.396 111.285 186.092 105.779C182.789 100.378 182.754 91.9762 186.092 86.4693C189.396 80.9625 195.28 77.7855 202.403 77.7855H204.226C208.906 77.7855 214.068 79.1622 217.956 81.5273V78.5621H226.903V114.689H217.956V110.721C214.068 113.086 208.906 114.462 204.226 114.462H202.403ZM192.768 96.1063C192.768 103.06 197.241 107.332 204.811 107.332C213.242 107.332 217.956 102.919 217.956 96.1063C217.956 89.3287 213.242 84.9161 204.811 84.9161C197.241 84.9161 192.768 89.1875 192.768 96.1063Z" fill="#FAFAFA"/>
<path d="M249.341 114.462C242.218 114.462 236.334 111.285 233.031 105.779C229.727 100.378 229.693 91.9762 233.031 86.4693C236.334 80.9625 242.218 77.7855 249.341 77.7855H251.165C255.845 77.7855 261.006 79.1622 264.894 81.5273V78.5621H273.841V114.689H264.894V110.721C261.006 113.086 255.845 114.462 251.165 114.462H249.341ZM239.706 96.1063C239.706 103.06 244.179 107.332 251.75 107.332C260.18 107.332 264.894 102.919 264.894 96.1063C264.894 89.3287 260.18 84.9161 251.75 84.9161C244.179 84.9161 239.706 89.1875 239.706 96.1063Z" fill="#FAFAFA"/>
</svg>
