<?xml version="1.0" encoding="UTF-8"?>
<svg xmlns="http://www.w3.org/2000/svg" xmlns:xlink="http://www.w3.org/1999/xlink" width="2836" height="2836" viewBox="0 0 2836 2836">
<path fill-rule="evenodd" fill="rgb(100%, 100%, 100%)" fill-opacity="1" d="M 0.882812 0.46875 L 2835.53125 0.46875 L 2835.53125 2835.117188 L 0.882812 2835.117188 L 0.882812 0.46875 "/>
<path fill-rule="nonzero" fill="rgb(0%, 0%, 0%)" fill-opacity="1" d="M 1635.671875 2358.804688 C 1636.839844 2369.425781 1629.179688 2378.984375 1618.558594 2380.15625 C 1607.941406 2381.324219 1598.378906 2373.664062 1597.210938 2363.042969 C 1588.710938 2288.304688 1586.578125 2226.394531 1592.078125 2180.050781 C 1598.191406 2128.578125 1614.308594 2094.21875 1642.039062 2079.980469 C 1661.421875 2070.03125 1696.621094 2070.058594 1736.808594 2074.53125 C 1774.039062 2078.671875 1816.808594 2086.566406 1854.058594 2093.492188 C 1895.511719 2101.199219 1928.378906 2102 1953.109375 2090.394531 C 1976.941406 2079.207031 1994.949219 2055.113281 2008.21875 2012.503906 C 2014.328125 1992.851562 2014.820312 1973.441406 2015.339844 1952.621094 C 2015.730469 1937.050781 2016.128906 1920.765625 2018.601562 1902.699219 C 2021.421875 1881.964844 2035.46875 1870.011719 2049.28125 1858.269531 C 2049.648438 1857.953125 2050.039062 1857.652344 2050.429688 1857.371094 C 2059.050781 1850.023438 2067.050781 1842.847656 2064.679688 1836.269531 C 2063.148438 1832.011719 2058.550781 1826.691406 2050.570312 1821.019531 C 2042.289062 1815.140625 2031.058594 1809.589844 2016.671875 1805.199219 C 2006.46875 1802.109375 2000.710938 1791.320312 2003.800781 1781.121094 C 2006.300781 1772.890625 2013.800781 1767.539062 2021.96875 1767.421875 C 2056.480469 1766.808594 2074.058594 1759.289062 2082.839844 1750.78125 C 2089.449219 1744.378906 2090.359375 1737.640625 2090.359375 1734.421875 C 2090.371094 1727.941406 2084.660156 1722.578125 2079.078125 1717.328125 C 2066.238281 1705.269531 2053.679688 1693.460938 2057.160156 1667.511719 C 2059.460938 1650.28125 2069 1636.171875 2086.558594 1624.289062 C 2100.78125 1614.671875 2120.808594 1606.410156 2147.269531 1598.851562 C 2167.011719 1590.539062 2177.480469 1583.828125 2179.488281 1577.429688 C 2181.25 1571.828125 2176.179688 1562.421875 2165 1548.238281 C 2164.699219 1547.859375 2164.410156 1547.46875 2164.148438 1547.078125 L 2142.960938 1520.46875 C 2114.390625 1484.621094 2080.238281 1441.738281 2040.25 1387.210938 C 2029.359375 1372.351562 2015.621094 1350.691406 2005.140625 1329.011719 C 1996.691406 1311.558594 1990.21875 1293.730469 1988.578125 1278.539062 C 1985.628906 1251.21875 1991.5 1219.058594 1997.929688 1183.859375 C 2005.011719 1145.050781 2012.820312 1102.261719 2008.898438 1061.988281 C 2000.511719 976 1979.960938 899.550781 1949.53125 832.800781 C 1893.378906 709.660156 1803.421875 619.378906 1694.03125 563.171875 C 1584.140625 506.71875 1454.460938 484.460938 1319.449219 497.628906 C 1227.910156 506.558594 1133.941406 531.789062 1042.03125 573.699219 C 902.550781 637.300781 801.007812 728.539062 737.414062 847.410156 C 673.65625 966.578125 647.617188 1114.121094 659.285156 1290.011719 C 684.917969 1422.808594 739.316406 1515.929688 792.675781 1607.269531 C 852.398438 1709.488281 910.867188 1809.558594 929.390625 1960.457031 C 936.542969 2018.753906 938.914062 2080.5 936.660156 2144.804688 C 934.386719 2209.527344 927.425781 2276.476562 915.941406 2344.730469 C 914.183594 2355.265625 904.214844 2362.386719 893.679688 2360.628906 C 883.144531 2358.875 876.023438 2348.90625 877.78125 2338.371094 C 889.035156 2271.472656 895.847656 2206.246094 898.046875 2143.589844 C 900.21875 2081.691406 897.894531 2021.925781 890.929688 1965.152344 C 873.382812 1822.210938 816.902344 1725.539062 759.210938 1626.800781 C 704.136719 1532.539062 647.988281 1436.429688 621.136719 1296.558594 C 620.941406 1295.648438 620.8125 1294.71875 620.746094 1293.769531 C 608.394531 1110.101562 635.929688 955.25 703.34375 829.238281 C 771.0625 702.660156 878.609375 605.769531 1025.980469 538.570312 C 1121.871094 494.851562 1220.039062 468.511719 1315.808594 459.171875 C 1458.058594 445.300781 1595.078125 468.949219 1711.589844 528.800781 C 1828.589844 588.910156 1924.730469 685.339844 1984.660156 816.75 C 2016.839844 887.320312 2038.539062 967.929688 2047.359375 1058.351562 C 2051.789062 1103.808594 2043.46875 1149.359375 2035.929688 1190.671875 C 2030.039062 1222.929688 2024.660156 1252.410156 2027.039062 1274.449219 C 2028.148438 1284.78125 2033.238281 1298.300781 2039.960938 1312.210938 C 2049.328125 1331.570312 2061.660156 1350.988281 2071.449219 1364.339844 C 2110.78125 1418 2144.800781 1460.691406 2173.238281 1496.390625 C 2177.839844 1502.160156 2182.421875 1507.921875 2194.421875 1523.128906 C 2194.769531 1523.511719 2195.109375 1523.898438 2195.429688 1524.308594 C 2214.960938 1549.078125 2222.621094 1569.269531 2216.441406 1588.941406 C 2210.550781 1607.691406 2192.71875 1621.820312 2161.128906 1635 C 2160.421875 1635.289062 2159.691406 1635.539062 2158.941406 1635.75 C 2135.949219 1642.261719 2119.191406 1648.960938 2108.210938 1656.390625 C 2100.339844 1661.71875 2096.210938 1666.96875 2095.46875 1672.5 C 2094.609375 1678.859375 2100.03125 1683.960938 2105.578125 1689.160156 C 2117.171875 1700.058594 2129 1711.179688 2128.980469 1734.421875 C 2128.96875 1743.46875 2126.648438 1762.171875 2109.800781 1778.488281 C 2103.03125 1785.050781 2093.820312 1791.238281 2081.300781 1796.089844 C 2091.261719 1804.851562 2097.800781 1814.300781 2101.019531 1823.25 C 2112.300781 1854.542969 2094.351562 1870.617188 2075.421875 1886.738281 C 2075.050781 1887.105469 2074.671875 1887.457031 2074.269531 1887.796875 C 2066.070312 1894.769531 2057.71875 1901.867188 2056.910156 1907.847656 C 2054.691406 1924.152344 2054.308594 1939.171875 2053.949219 1953.53125 C 2053.359375 1977.304688 2052.800781 1999.46875 2045.171875 2024.007812 C 2028.378906 2077.929688 2003.558594 2109.367188 1969.46875 2125.371094 C 1936.269531 2140.953125 1896.109375 2140.609375 1847.101562 2131.5 C 1810.800781 2124.753906 1769.121094 2117.058594 1732.570312 2112.992188 C 1698.988281 2109.253906 1671.089844 2108.457031 1659.609375 2114.351562 C 1644.511719 2122.097656 1635.089844 2146.332031 1630.539062 2184.59375 C 1625.390625 2227.984375 1627.5 2286.964844 1635.671875 2358.804688 "/>
</svg>
